<svg width="90" height="98" viewBox="0 0 90 98" fill="none" xmlns="http://www.w3.org/2000/svg">
<path fill-rule="evenodd" clip-rule="evenodd" d="M39.3941 44.0492H39.374V38.8669H39.3941V22.0281V5.27902C36.889 5.27902 34.8643 6.00124 33.0929 7.45903C31.3215 8.91682 30.3263 10.894 30.3263 12.9556V15.9752H30.3262C30.3263 15.9844 30.3263 15.9936 30.3263 16.0028C30.3263 18.842 27.5295 20.7843 24.0796 20.7843C20.6296 20.7843 17.8328 18.842 17.8328 16.0028C17.8328 15.8461 17.8413 15.6948 17.858 15.5489V13.0109C17.858 10.9493 16.8629 8.97213 15.0914 7.51433C13.32 6.05654 10.9175 5.23756 8.41235 5.23756V15.9752H8.36197V67.0226C8.24849 67.5383 7.94665 68.0174 7.49016 68.3931C6.89969 68.879 6.09884 69.152 5.26379 69.152C4.42874 69.152 3.6279 68.879 3.03743 68.3931C2.44696 67.9072 2.11523 67.2481 2.11523 66.5609V2.64644C2.11523 1.95923 2.44696 1.30016 3.03743 0.814231C3.6279 0.3283 4.42874 0.0553077 5.26379 0.0553077H8.41235C12.5876 0.0553077 16.5918 1.42027 19.5442 3.84993C22.1551 5.99858 23.7542 8.82424 24.0891 11.8255C24.4105 8.80365 26.0132 5.95646 28.6401 3.79462C31.5925 1.36497 35.5967 0 39.772 0H42.9205C43.7556 0 44.5564 0.272993 45.1469 0.758923C45.7374 1.24485 46.0691 1.90392 46.0691 2.59113V66.5056C46.0691 67.1928 45.7374 67.8519 45.1469 68.3378C44.5564 68.8237 43.7556 69.0967 42.9205 69.0967C42.0855 69.0967 41.2846 68.8237 40.6941 68.3378C40.1037 67.8519 39.3941 67.1928 39.3941 66.5056V44.0492Z" fill="#FF7C00"/>
<path d="M65.7159 0C66.551 0 67.3518 0.272993 67.9423 0.758924C68.5328 1.24485 68.8645 1.90392 68.8645 2.59113V19.8653C68.8645 20.5525 68.5328 21.2116 67.9423 21.6975C67.3518 22.1835 66.551 22.4564 65.7159 22.4564C64.8809 22.4564 64.08 22.1835 63.4896 21.6975C62.8991 21.2116 62.5674 20.5525 62.5674 19.8653V2.59113C62.5674 1.90392 62.8991 1.24485 63.4896 0.758924C64.08 0.272993 64.8809 0 65.7159 0Z" fill="#FF7C00"/>
<path d="M56.3713 2.59113C56.3713 1.90392 56.0396 1.24485 55.4491 0.758924C54.8587 0.272993 54.0578 0 53.2228 0C52.3877 0 51.5869 0.272993 50.9964 0.758924C50.4059 1.24485 50.0742 1.90392 50.0742 2.59113V19.8653C50.0735 22.852 51.3267 25.7472 53.6217 28.0608C55.9167 30.3745 59.1126 31.9645 62.6684 32.5619V66.5056C62.6684 67.1928 63.0002 67.8519 63.5906 68.3378C64.1811 68.8238 64.9819 69.0968 65.817 69.0968C66.652 69.0968 67.4529 68.8238 68.0434 68.3378C68.6338 67.8519 68.9656 67.1928 68.9656 66.5056V32.5619C72.5214 31.9645 75.7173 30.3745 78.0123 28.0608C80.3073 25.7472 81.5605 22.852 81.5598 19.8653V2.59113C81.5598 1.90392 81.2281 1.24485 80.6376 0.758924C80.0471 0.272993 79.2463 0 78.4112 0C77.5762 0 76.7753 0.272993 76.1849 0.758924C75.5944 1.24485 75.2627 1.90392 75.2627 2.59113V19.8653C75.2627 21.927 74.2675 23.9041 72.4961 25.3619C70.7247 26.8197 68.3221 27.6387 65.817 27.6387C63.3118 27.6387 60.9093 26.8197 59.1379 25.3619C57.3665 23.9041 56.3713 21.927 56.3713 19.8653V2.59113Z" fill="black"/>
<path d="M87.7176 97.2007C86.8119 97.2007 86.1208 97.0004 85.6441 96.5998C85.1674 96.1992 84.8385 95.6269 84.6574 94.8829C84.4858 94.1389 84.4 93.2519 84.4 92.2218V83.9235H82.9414V81.3196H84.4V77.4566H87.2886V81.3196H89.2763V83.9235H87.2886V92.6367C87.2886 93.2471 87.3792 93.7002 87.5603 93.9959C87.7414 94.282 88.037 94.4251 88.4469 94.4251C88.628 94.4251 88.7853 94.4108 88.9188 94.3822C89.0618 94.3536 89.1762 94.3202 89.262 94.282V96.9289C89.0713 97.0052 88.8616 97.0672 88.6328 97.1149C88.4135 97.1721 88.1085 97.2007 87.7176 97.2007Z" fill="#FF7C00"/>
<path d="M73.9971 96.9718V81.3196H76.8857V82.6359C77.2289 82.302 77.615 81.9634 78.044 81.62C78.473 81.2671 78.8686 81.0907 79.2309 81.0907C79.7075 81.0907 80.1079 81.2433 80.4321 81.5485C80.7562 81.8537 80.9993 82.24 81.1614 82.7074C81.3234 83.1748 81.4045 83.6564 81.4045 84.1524V96.9718H78.5159V84.7247C78.5159 84.4195 78.4634 84.2049 78.3586 84.0809C78.2537 83.9569 78.0773 83.8949 77.8295 83.8949C77.6197 83.8949 77.4386 83.9712 77.2861 84.1238C77.1431 84.2669 77.0096 84.4386 76.8857 84.6389V96.9718H73.9971Z" fill="#FF7C00"/>
<path d="M66.2506 97.2007C65.5833 97.2007 65.0065 96.8621 64.5203 96.1849C64.0341 95.5077 63.791 94.4728 63.791 93.0802C63.791 91.7353 64.077 90.6527 64.649 89.8324C65.2305 89.0121 66.0981 88.3016 67.2516 87.7006C67.6139 87.5099 67.9189 87.3382 68.1668 87.1856C68.4147 87.033 68.5672 86.8899 68.6244 86.7564V85.0395C68.6244 84.6484 68.5767 84.3146 68.4814 84.038C68.3956 83.7518 68.1763 83.6088 67.8236 83.6088C67.4995 83.6088 67.2802 83.7614 67.1658 84.0666C67.0514 84.3623 66.9942 84.7343 66.9942 85.1826V85.9265H64.1056V85.2684C64.1056 84.41 64.2724 83.6708 64.6061 83.0508C64.9493 82.4212 65.4117 81.9396 65.9932 81.6057C66.5843 81.2624 67.2516 81.0907 67.9952 81.0907C68.7102 81.0907 69.3299 81.2576 69.8542 81.5914C70.3785 81.9157 70.7837 82.3688 71.0697 82.9506C71.3652 83.5229 71.513 84.181 71.513 84.925V94.2534C71.513 94.9497 71.5321 95.4934 71.5702 95.8844C71.6083 96.266 71.656 96.6284 71.7132 96.9718H68.8818C68.7579 96.8192 68.6816 96.595 68.653 96.2993C68.6339 96.0037 68.6244 95.8081 68.6244 95.7127H68.4242C68.1859 96.1515 67.8808 96.5092 67.509 96.7858C67.1467 97.0624 66.7273 97.2007 66.2506 97.2007ZM67.4232 94.3679C67.7569 94.3679 68.0381 94.2534 68.2669 94.0245C68.5052 93.7956 68.6244 93.5476 68.6244 93.2805V89.5606C67.9285 89.8563 67.4184 90.3046 67.0943 90.9055C66.7797 91.4969 66.6224 92.1645 66.6224 92.9085C66.6224 93.2328 66.6844 93.5571 66.8083 93.8814C66.9322 94.2057 67.1372 94.3679 67.4232 94.3679Z" fill="#FF7C00"/>
<path d="M56.584 96.9718V81.3196H59.4726V83.0651C59.5298 82.6835 59.7061 82.3449 60.0017 82.0493C60.2972 81.7536 60.6547 81.5199 61.0742 81.3482C61.5032 81.1765 61.9322 81.0907 62.3612 81.0907V84.2955C62.2372 84.2478 62.1038 84.2192 61.9608 84.2097C61.8273 84.1906 61.6938 84.181 61.5604 84.181C60.9312 84.181 60.4259 84.3527 60.0446 84.6961C59.6632 85.0395 59.4726 85.5069 59.4726 86.0982V96.9718H56.584Z" fill="#FF7C00"/>
<path d="M49.074 97.2007C48.5973 97.2007 48.1969 97.0481 47.8728 96.7429C47.5487 96.4377 47.3056 96.0514 47.1435 95.584C46.9814 95.1071 46.9004 94.6254 46.9004 94.1389V81.3196H49.789V93.5667C49.789 93.8623 49.8414 94.077 49.9463 94.2105C50.0607 94.3345 50.2371 94.3965 50.4754 94.3965C50.6851 94.3965 50.8615 94.3249 51.0045 94.1819C51.157 94.0293 51.2952 93.8528 51.4192 93.6525V81.3196H54.3078V96.9718H51.4192V95.6555C51.076 95.9798 50.6899 96.3184 50.2609 96.6713C49.8319 97.0243 49.4363 97.2007 49.074 97.2007Z" fill="#FF7C00"/>
<path d="M39.1549 97.2007C38.4876 97.2007 37.9108 96.8621 37.4246 96.1849C36.9384 95.5077 36.6953 94.4728 36.6953 93.0802C36.6953 91.7353 36.9813 90.6527 37.5533 89.8324C38.1348 89.0121 39.0024 88.3016 40.1559 87.7006C40.5182 87.5099 40.8232 87.3382 41.0711 87.1856C41.319 87.033 41.4715 86.8899 41.5287 86.7564V85.0395C41.5287 84.6484 41.481 84.3146 41.3857 84.038C41.2999 83.7518 41.0806 83.6088 40.7279 83.6088C40.4038 83.6088 40.1845 83.7614 40.0701 84.0666C39.9557 84.3623 39.8985 84.7343 39.8985 85.1826V85.9265H37.0099V85.2684C37.0099 84.41 37.1767 83.6708 37.5104 83.0508C37.8536 82.4212 38.316 81.9396 38.8975 81.6057C39.4886 81.2624 40.1559 81.0907 40.8995 81.0907C41.6145 81.0907 42.2342 81.2576 42.7585 81.5914C43.2828 81.9157 43.688 82.3688 43.974 82.9506C44.2695 83.5229 44.4173 84.181 44.4173 84.925V94.2534C44.4173 94.9497 44.4364 95.4934 44.4745 95.8844C44.5126 96.266 44.5603 96.6284 44.6175 96.9718H41.7861C41.6622 96.8192 41.5859 96.595 41.5573 96.2993C41.5382 96.0037 41.5287 95.8081 41.5287 95.7127H41.3285C41.0902 96.1515 40.7851 96.5092 40.4133 96.7858C40.051 97.0624 39.6316 97.2007 39.1549 97.2007ZM40.3275 94.3679C40.6612 94.3679 40.9424 94.2534 41.1712 94.0245C41.4095 93.7956 41.5287 93.5476 41.5287 93.2805V89.5606C40.8328 89.8563 40.3227 90.3046 39.9986 90.9055C39.684 91.4969 39.5267 92.1645 39.5267 92.9085C39.5267 93.2328 39.5887 93.5571 39.7126 93.8814C39.8365 94.2057 40.0415 94.3679 40.3275 94.3679Z" fill="#FF7C00"/>
<path d="M33.6365 97.2007C32.7309 97.2007 32.0397 97.0004 31.563 96.5998C31.0864 96.1992 30.7575 95.6269 30.5763 94.8829C30.4047 94.1389 30.3189 93.2519 30.3189 92.2218V83.9235H28.8604V81.3196H30.3189V77.4566H33.2075V81.3196H35.1952V83.9235H33.2075V92.6367C33.2075 93.2471 33.2981 93.7002 33.4792 93.9959C33.6604 94.282 33.9559 94.4251 34.3658 94.4251C34.547 94.4251 34.7043 94.4108 34.8377 94.3822C34.9807 94.3536 35.0951 94.3202 35.1809 94.282V96.9289C34.9903 97.0052 34.7805 97.0672 34.5517 97.1149C34.3325 97.1721 34.0274 97.2007 33.6365 97.2007Z" fill="#FF7C00"/>
<path d="M23.7465 97.2007C23.0696 97.2007 22.4785 97.0862 21.9733 96.8573C21.468 96.6284 21.0485 96.3041 20.7149 95.8844C20.3812 95.4552 20.1286 94.9497 19.957 94.3679C19.7949 93.786 19.7139 93.1374 19.7139 92.4221H22.4023C22.4023 93.0611 22.5024 93.6191 22.7026 94.096C22.9123 94.5634 23.2603 94.7971 23.7465 94.7971C24.1659 94.7971 24.4376 94.6206 24.5616 94.2677C24.6855 93.9148 24.7475 93.5094 24.7475 93.0516C24.7475 92.5174 24.5377 91.9738 24.1183 91.4205C23.7083 90.8578 23.2793 90.357 22.8313 89.9183C22.0591 89.1552 21.4156 88.4017 20.9008 87.6577C20.3955 86.9137 20.1429 86.041 20.1429 85.0395C20.1429 83.8567 20.4527 82.9029 21.0724 82.178C21.692 81.4531 22.5739 81.0907 23.7179 81.0907C24.4043 81.0907 24.981 81.1813 25.4482 81.3625C25.9248 81.5437 26.3062 81.8156 26.5922 82.178C26.8782 82.5405 27.0831 82.984 27.2071 83.5086C27.3405 84.0332 27.4073 84.6389 27.4073 85.3256H24.7189C24.7189 84.8296 24.6664 84.4004 24.5616 84.038C24.4567 83.6755 24.1945 83.4943 23.7751 83.4943C23.4319 83.4943 23.1888 83.6421 23.0458 83.9378C22.9028 84.224 22.8313 84.5912 22.8313 85.0395C22.8313 85.5641 22.9552 86.0315 23.2031 86.4416C23.4605 86.8422 23.8847 87.3334 24.4758 87.9153C25.2194 88.6402 25.8962 89.4128 26.5064 90.233C27.126 91.0533 27.4359 91.9451 27.4359 92.9085C27.4359 93.538 27.3501 94.1151 27.1785 94.6397C27.0164 95.1643 26.7733 95.6174 26.4492 95.9989C26.1346 96.3804 25.7485 96.6761 25.2909 96.8859C24.8428 97.0958 24.328 97.2007 23.7465 97.2007Z" fill="#FF7C00"/>
<path d="M14.2258 97.2007C13.0723 97.2007 12.1618 96.8049 11.4945 96.0132C10.8367 95.212 10.5078 94.2343 10.5078 93.0802V85.2112C10.5078 83.9903 10.8367 82.9983 11.4945 82.2353C12.1523 81.4722 13.0723 81.0907 14.2544 81.0907C15.0266 81.0907 15.6892 81.2671 16.2421 81.62C16.8046 81.973 17.2336 82.4546 17.5291 83.0651C17.8246 83.666 17.9724 84.3527 17.9724 85.1253V89.6751H13.1962V93.0802C13.1962 93.4713 13.282 93.8337 13.4536 94.1676C13.6347 94.4918 13.9017 94.654 14.2544 94.654C14.6262 94.654 14.8884 94.5014 15.0409 94.1962C15.203 93.8909 15.284 93.519 15.284 93.0802V91.3633H17.9724V93.166C17.9724 94.3774 17.6435 95.3551 16.9857 96.099C16.3374 96.8335 15.4175 97.2007 14.2258 97.2007ZM13.1962 87.4145H15.284V85.2112C15.284 84.782 15.2077 84.41 15.0552 84.0952C14.9122 83.7709 14.6453 83.6088 14.2544 83.6088C13.8921 83.6088 13.6252 83.7757 13.4536 84.1095C13.282 84.4338 13.1962 84.801 13.1962 85.2112V87.4145Z" fill="#FF7C00"/>
<path d="M0 96.9717V75.94H3.0888C4.93826 75.94 6.30153 76.455 7.17859 77.4852C8.05566 78.5057 8.49419 80.0128 8.49419 82.0063C8.49419 83.189 8.28446 84.2144 7.86499 85.0823C7.45506 85.9408 6.95456 86.5703 6.36349 86.9709L8.46559 96.9717H5.3768L3.6322 88.1012H3.0888V96.9717H0ZM3.0888 85.2397C3.6608 85.2397 4.11363 85.1157 4.4473 84.8677C4.78096 84.6102 5.0193 84.2478 5.1623 83.7804C5.3053 83.313 5.3768 82.7598 5.3768 82.1207C5.3768 81.1192 5.20996 80.3514 4.8763 79.8173C4.55216 79.2736 3.95633 79.0017 3.0888 79.0017V85.2397Z" fill="#FF7C00"/>
</svg>
